HIERARCHY
ROOT hip
{
  OFFSET 2.17888 83.8451 40.6215
  CHANNELS 6 Xposition Yposition Zposition Zrotation Xrotation Yrotation
  JOINT abdomen
  {
    OFFSET 0 20.6881 -0.73152
    CHANNELS 3 Zrotation Xrotation Yrotation
    JOINT chest
    {
      OFFSET 0 11.7043 -0.48768
      CHANNELS 3 Zrotation Xrotation Yrotation
      JOINT neck
      {
        OFFSET 0 22.1894 -2.19456
        CHANNELS 3 Zrotation Xrotation Yrotation
        JOINT head
        {
          OFFSET -0.24384 7.07133 1.2192
          CHANNELS 3 Zrotation Xrotation Yrotation
          JOINT leftEye
          {
            OFFSET 4.14528 8.04674 8.04672
            CHANNELS 3 Zrotation Xrotation Yrotation
            End Site
            {
              OFFSET 1 0 0
            }
          }
          JOINT rightEye
          {
            OFFSET -3.6576 8.04674 8.04672
            CHANNELS 3 Zrotation Xrotation Yrotation
            End Site
            {
              OFFSET 1 0 0
            }
          }
        }
      }
      JOINT rCollar
      {
        OFFSET -2.68224 19.2634 -4.8768
        CHANNELS 3 Zrotation Xrotation Yrotation
        JOINT rShldr
        {
          OFFSET -8.77824 -1.95073 1.46304
          CHANNELS 3 Zrotation Xrotation Yrotation
          JOINT rForeArm
          {
            OFFSET -28.1742 -1.7115 0.48768
            CHANNELS 3 Zrotation Xrotation Yrotation
            JOINT rHand
            {
              OFFSET -22.5879 0.773209 7.07136
              CHANNELS 3 Zrotation Xrotation Yrotation
              JOINT rThumb1
              {
                OFFSET -1.2192 -0.487915 3.41376
                CHANNELS 3 Zrotation Xrotation Yrotation
                JOINT rThumb2
                {
                  OFFSET -3.37035 -0.52449 3.41376
                  CHANNELS 3 Zrotation Xrotation Yrotation
                  End Site
                  {
                    OFFSET -1.78271 -1.18214 1.43049
                  }
                }
              }
              JOINT rIndex1
              {
                OFFSET -7.75947 0.938293 5.60832
                CHANNELS 3 Zrotation Xrotation Yrotation
                JOINT rIndex2
                {
                  OFFSET -2.54057 -0.884171 1.56538
                  CHANNELS 3 Zrotation Xrotation Yrotation
                  End Site
                  {
                    OFFSET -1.62519 -0.234802 1.16502
                  }
                }
              }
              JOINT rMid1
              {
                OFFSET -8.24714 1.18213 3.41376
                CHANNELS 3 Zrotation Xrotation Yrotation
                JOINT rMid2
                {
                  OFFSET -3.10165 -0.590103 1.0647
                  CHANNELS 3 Zrotation Xrotation Yrotation
                  End Site
                  {
                    OFFSET -2.48547 -0.328903 0.83742
                  }
                }
              }
              JOINT rRing1
              {
                OFFSET -8.82822 0.546677 1.51678
                CHANNELS 3 Zrotation Xrotation Yrotation
                JOINT rRing2
                {
                  OFFSET -2.60934 -0.819778 -0.0198488
                  CHANNELS 3 Zrotation Xrotation Yrotation
                  End Site
                  {
                    OFFSET -2.33842 -0.294052 0.168128
                  }
                }
              }
              JOINT rPinky1
              {
                OFFSET -8.27202 -0.0477905 -0.4584
                CHANNELS 3 Zrotation Xrotation Yrotation
                JOINT rPinky2
                {
                  OFFSET -1.82734 -0.647385 -0.700984
                  CHANNELS 3 Zrotation Xrotation Yrotation
                  End Site
                  {
                    OFFSET -1.69225 -0.51767 -0.607171
                  }
                }
              }
            }
          }
        }
      }
      JOINT lCollar
      {
        OFFSET 2.68224 19.2634 -4.8768
        CHANNELS 3 Zrotation Xrotation Yrotation
        JOINT lShldr
        {
          OFFSET 8.77824 -1.95073 1.46304
          CHANNELS 3 Zrotation Xrotation Yrotation
          JOINT lForeArm
          {
            OFFSET 28.1742 -1.7115 0.48768
            CHANNELS 3 Zrotation Xrotation Yrotation
            JOINT lHand
            {
              OFFSET 22.5879 0.773209 7.07136
              CHANNELS 3 Zrotation Xrotation Yrotation
              JOINT lThumb1
              {
                OFFSET 1.2192 -0.487915 3.41376
                CHANNELS 3 Zrotation Xrotation Yrotation
                JOINT lThumb2
                {
                  OFFSET 3.37035 -0.52449 3.41376
                  CHANNELS 3 Zrotation Xrotation Yrotation
                  End Site
                  {
                    OFFSET 1.78271 -1.18214 1.43049
                  }
                }
              }
              JOINT lIndex1
              {
                OFFSET 7.75947 0.938293 5.60832
                CHANNELS 3 Zrotation Xrotation Yrotation
                JOINT lIndex2
                {
                  OFFSET 2.54057 -0.884171 1.56538
                  CHANNELS 3 Zrotation Xrotation Yrotation
                  End Site
                  {
                    OFFSET 1.62519 -0.234802 1.16502
                  }
                }
              }
              JOINT lMid1
              {
                OFFSET 8.24714 1.18213 3.41376
                CHANNELS 3 Zrotation Xrotation Yrotation
                JOINT lMid2
                {
                  OFFSET 3.10165 -0.590103 1.0647
                  CHANNELS 3 Zrotation Xrotation Yrotation
                  End Site
                  {
                    OFFSET 2.48547 -0.328903 0.83742
                  }
                }
              }
              JOINT lRing1
              {
                OFFSET 8.82822 0.546677 1.51678
                CHANNELS 3 Zrotation Xrotation Yrotation
                JOINT lRing2
                {
                  OFFSET 2.60934 -0.819778 -0.0198488
                  CHANNELS 3 Zrotation Xrotation Yrotation
                  End Site
                  {
                    OFFSET 2.33842 -0.294052 0.168128
                  }
                }
              }
              JOINT lPinky1
              {
                OFFSET 8.27202 -0.0477905 -0.4584
                CHANNELS 3 Zrotation Xrotation Yrotation
                JOINT lPinky2
                {
                  OFFSET 1.82734 -0.647385 -0.700984
                  CHANNELS 3 Zrotation Xrotation Yrotation
                  End Site
                  {
                    OFFSET 1.69225 -0.51767 -0.607171
                  }
                }
              }
            }
          }
        }
      }
    }
  }
  JOINT rButtock
  {
    OFFSET -8.77824 4.35084 1.2192
    CHANNELS 3 Zrotation Xrotation Yrotation
    JOINT rThigh
    {
      OFFSET 0 -1.70687 -2.19456
      CHANNELS 3 Zrotation Xrotation Yrotation
      JOINT rShin
      {
        OFFSET 0 -36.8199 0.73152
        CHANNELS 3 Zrotation Xrotation Yrotation
        JOINT rFoot
        {
          OFFSET 0.73152 -45.1104 -5.12064
          CHANNELS 3 Zrotation Xrotation Yrotation
          End Site
          {
            OFFSET -1.1221 -3.69964 12.103
          }
        }
      }
    }
  }
  JOINT lButtock
  {
    OFFSET 8.77824 4.35084 1.2192
    CHANNELS 3 Zrotation Xrotation Yrotation
    JOINT lThigh
    {
      OFFSET 0 -1.70687 -2.19456
      CHANNELS 3 Zrotation Xrotation Yrotation
      JOINT lShin
      {
        OFFSET 0 -36.8199 0.73152
        CHANNELS 3 Zrotation Xrotation Yrotation
        JOINT lFoot
        {
          OFFSET -0.73152 -45.1104 -5.12064
          CHANNELS 3 Zrotation Xrotation Yrotation
          End Site
          {
            OFFSET 1.1221 -3.69964 12.103
          }
        }
      }
    }
  }
}
MOTION
Frames:	6
Frame Time:	0.00833333
5.57939 71.0265 -94.3542 -1.59466 28.8419 -1.66055 3.95166 27.1799 1.26639 2.29353 -10.5239 0.801389 -9.33449 -6.34848 -4.47117 9.51216 -8.95665 -4.55127 -0 0 0 -0 0 0 -1.58964e-014 -1.59028e-014 -1.67178e-013 73.6321 26.6499 6.75167 -27.7685 -29.3753 66.2527 -0.0677429 -7.4058 -1.04671 -3.6993e-010 -3.95774e-010 2.91395e-009 -6.53775e-010 -6.60585e-010 5.02888e-009 -3.69914e-010 -3.95781e-010 2.91394e-009 7.73091 5.47488 0.417314 -3.69921e-010 -3.95782e-010 2.91395e-009 2.90554 0.965183 0.102902 -3.69915e-010 -3.95781e-010 2.91395e-009 10.2786 0.731801 0.0259123 -3.69937e-010 -3.95772e-010 2.91396e-009 2.22167 -0.733487 -0.20892 -1.59599e-014 -1.59024e-014 -1.67526e-013 -76.6966 24.3304 -6.6584 27.1299 -26.7815 -62.1259 0.266042 -14.5273 2.08705 1.39389e-009 1.14492e-009 -2.26849e-009 2.43134e-009 2.01653e-009 -3.89921e-009 1.3939e-009 1.14492e-009 -2.26848e-009 -7.73091 5.47488 -0.417314 1.3939e-009 1.14492e-009 -2.26849e-009 -2.90554 0.965183 -0.102902 1.39389e-009 1.14492e-009 -2.26849e-009 -10.2786 0.731801 -0.0259123 1.3939e-009 1.14492e-009 -2.2685e-009 -2.22167 -0.733487 0.20892 -2.03217e-016 0 -3.88251e-019 10.9606 -69.1538 6.1861 -1.2624 63.3868 1.90847 -5.19705 -15.598 -12.8092 2.03217e-016 0 3.88251e-019 2.21365 -71.4991 1.48519 1.37902 64.3954 -1.90459 2.54281 -18.263 5.09208 
5.52521 70.6545 -94.4865 -1.55716 29.237 -1.692 3.86974 27.3542 1.32535 2.26998 -10.6358 0.813246 -9.31366 -6.45281 -4.49106 9.56903 -9.21441 -4.5593 -0 0 0 -0 0 0 -2.06447e-014 -2.09459e-014 -1.42633e-013 73.2962 26.6203 7.24851 -27.7315 -29.1959 65.9614 -0.0689634 -7.47175 -1.05614 -5.52632e-010 -1.50199e-010 3.20351e-009 -9.71899e-010 -2.3257e-010 5.52921e-009 -5.52619e-010 -1.50207e-010 3.20349e-009 7.73091 5.47488 0.417314 -5.52623e-010 -1.50209e-010 3.20351e-009 2.90554 0.965183 0.102902 -5.52617e-010 -1.50208e-010 3.20351e-009 10.2786 0.731801 0.0259123 -5.5264e-010 -1.50198e-010 3.20352e-009 2.22167 -0.733487 -0.20892 -2.07097e-014 -2.09479e-014 -1.42962e-013 -76.4036 24.3644 -7.21689 27.0566 -26.5269 -61.7101 0.264923 -14.4945 2.08215 1.36817e-009 1.01936e-009 -2.61402e-009 2.39102e-009 1.80408e-009 -4.4975e-009 1.36817e-009 1.01937e-009 -2.61402e-009 -7.73091 5.47488 -0.417314 1.36817e-009 1.01937e-009 -2.61402e-009 -2.90554 0.965183 -0.102902 1.36816e-009 1.01937e-009 -2.61403e-009 -10.2786 0.731801 -0.0259123 1.36817e-009 1.01937e-009 -2.61403e-009 -2.22167 -0.733487 0.20892 -2.03217e-016 0 -3.88251e-019 11.4388 -69.9022 6.66312 -1.31223 64.0095 1.96644 -5.34276 -15.6832 -13.1265 2.03217e-016 0 3.88251e-019 2.14944 -72.2493 1.43044 1.43447 65.0192 -1.96623 2.64697 -18.4913 5.29771 
5.48769 70.3493 -94.4777 -1.51966 29.6117 -1.73643 3.77421 27.5041 1.39867 2.24073 -10.7548 0.827466 -9.31062 -6.51044 -4.5262 9.70256 -9.43453 -4.59534 -0 0 0 -0 0 0 -2.50302e-014 -2.32547e-014 -8.075e-014 72.9682 26.5855 7.74776 -27.6809 -28.9616 65.59 -0.0716826 -7.61533 -1.07668 -9.22015e-010 3.58937e-010 3.72204e-009 -1.61456e-009 6.54363e-010 6.42491e-009 -9.22004e-010 3.58928e-010 3.72203e-009 7.73091 5.47488 0.417314 -9.22006e-010 3.58926e-010 3.72204e-009 2.90554 0.965183 0.102902 -9.22e-010 3.58926e-010 3.72205e-009 10.2786 0.731801 0.0259123 -9.22025e-010 3.58938e-010 3.72205e-009 2.22167 -0.733487 -0.20892 -2.50931e-014 -2.32612e-014 -8.10296e-014 -76.0822 24.4222 -7.79438 26.9622 -26.2109 -61.2072 0.257089 -14.2851 2.05076 1.23213e-009 6.26113e-010 -3.28704e-009 2.16366e-009 1.13316e-009 -5.66362e-009 1.23213e-009 6.26117e-010 -3.28704e-009 -7.73091 5.47488 -0.417314 1.23213e-009 6.26118e-010 -3.28704e-009 -2.90554 0.965183 -0.102902 1.23213e-009 6.26118e-010 -3.28705e-009 -10.2786 0.731801 -0.0259123 1.23214e-009 6.26119e-010 -3.28706e-009 -2.22167 -0.733487 0.20892 -2.03217e-016 0 -3.88251e-019 12.0085 -70.5786 7.25157 -1.35868 64.5659 2.0209 -5.49449 -15.7473 -13.4694 2.03217e-016 0 3.88251e-019 2.1214 -72.9365 1.41472 1.48594 65.573 -2.02386 2.75996 -18.686 5.52852 
5.49002 70.1725 -94.2837 -1.50412 29.9493 -1.76928 3.70359 27.6578 1.47257 2.20699 -10.8667 0.842956 -9.32023 -6.56822 -4.56936 9.86423 -9.63638 -4.64167 -0 0 0 -0 0 0 -2.7824e-014 -2.50664e-014 -1.18137e-014 72.643 26.535 8.26159 -27.6212 -28.6958 65.1716 -0.0740781 -7.73868 -1.09434 -1.30554e-009 8.94113e-010 4.20558e-009 -2.28136e-009 1.58595e-009 7.26e-009 -1.30553e-009 8.94103e-010 4.20557e-009 7.73091 5.47488 0.417314 -1.30553e-009 8.94102e-010 4.20558e-009 2.90554 0.965183 0.102902 -1.30553e-009 8.94101e-010 4.20559e-009 10.2786 0.731801 0.0259123 -1.30555e-009 8.94115e-010 4.20559e-009 2.22167 -0.733487 -0.20892 -2.7886e-014 -2.50776e-014 -1.20405e-014 -75.7546 24.4925 -8.39803 26.8546 -25.8632 -60.6599 0.249167 -14.069 2.01843 1.06255e-009 1.84799e-010 -3.94742e-009 1.87818e-009 3.78852e-010 -6.80816e-009 1.06256e-009 1.84803e-010 -3.94742e-009 -7.73091 5.47488 -0.417314 1.06256e-009 1.84804e-010 -3.94742e-009 -2.90554 0.965183 -0.102902 1.06255e-009 1.84805e-010 -3.94743e-009 -10.2786 0.731801 -0.0259123 1.06256e-009 1.84806e-010 -3.94743e-009 -2.22167 -0.733487 0.20892 -2.03217e-016 0 -3.88251e-019 12.626 -71.1617 7.87711 -1.40327 65.0809 2.07386 -5.65227 -15.8227 -13.8194 2.03217e-016 0 3.88251e-019 2.1265 -73.5463 1.41402 1.53604 66.0907 -2.08036 2.88018 -18.8829 5.773 
5.47061 70.0975 -94.1081 -1.53319 30.233 -1.76569 3.69644 27.8435 1.53326 2.16995 -10.9574 0.858614 -9.33743 -6.67301 -4.61332 10.0057 -9.83935 -4.68053 -0 0 0 -0 0 0 -2.77974e-014 -2.86184e-014 3.38928e-014 72.3163 26.4584 8.80196 -27.5582 -28.4235 64.7379 -0.0741189 -7.74392 -1.09508 -1.53068e-009 1.21781e-009 4.39014e-009 -2.67193e-009 2.14794e-009 7.57848e-009 -1.53067e-009 1.2178e-009 4.39014e-009 7.73091 5.47488 0.417314 -1.53067e-009 1.2178e-009 4.39014e-009 2.90554 0.965183 0.102902 -1.53067e-009 1.2178e-009 4.39015e-009 10.2786 0.731801 0.0259123 -1.53069e-009 1.21781e-009 4.39015e-009 2.22167 -0.733487 -0.20892 -2.7864e-014 -2.86324e-014 3.3694e-014 -75.4431 24.5636 -9.03484 26.7436 -25.5164 -60.1085 0.247163 -14.0159 2.01047 9.36195e-010 -8.49494e-011 -4.25502e-009 1.66353e-009 -8.37694e-011 -7.34172e-009 9.36196e-010 -8.49455e-011 -4.25502e-009 -7.73091 5.47488 -0.417314 9.36199e-010 -8.4945e-011 -4.25502e-009 -2.90554 0.965183 -0.102902 9.36196e-010 -8.49435e-011 -4.25503e-009 -10.2786 0.731801 -0.0259123 9.36204e-010 -8.49419e-011 -4.25503e-009 -2.22167 -0.733487 0.20892 -2.03217e-016 0 -3.88251e-019 13.2332 -71.6318 8.45196 -1.44796 65.5792 2.1277 -5.81679 -15.9416 -14.158 2.03217e-016 0 3.88251e-019 2.15739 -74.0645 1.40022 1.58802 66.6061 -2.13927 3.00646 -19.1178 6.01987 
5.43021 69.8576 -93.9556 -1.64289 30.4274 -1.68354 3.8062 28.1133 1.554 2.12676 -11.0206 0.870799 -9.37396 -6.85393 -4.6613 10.1319 -10.0501 -4.70784 -0 0 0 -0 0 0 -2.23098e-014 -3.91288e-014 4.36616e-014 71.9801 26.3409 9.3945 -27.4887 -28.1322 64.2656 -0.0703358 -7.55678 -1.06827 -1.57448e-009 1.25683e-009 4.23646e-009 -2.74565e-009 2.21233e-009 7.31186e-009 -1.57448e-009 1.25682e-009 4.23645e-009 7.73091 5.47488 0.417314 -1.57448e-009 1.25683e-009 4.23646e-009 2.90554 0.965183 0.102902 -1.57447e-009 1.25682e-009 4.23647e-009 10.2786 0.731801 0.0259123 -1.57449e-009 1.25684e-009 4.23647e-009 2.22167 -0.733487 -0.20892 -2.2396e-014 -3.91435e-014 4.34473e-014 -75.1485 24.637 -9.72658 26.6302 -25.1731 -59.5566 0.253337 -14.1895 2.03639 9.14277e-010 -6.11653e-011 -4.13687e-009 1.6248e-009 -4.48295e-011 -7.13671e-009 9.14275e-010 -6.11625e-011 -4.13687e-009 -7.73091 5.47488 -0.417314 9.1428e-010 -6.11623e-011 -4.13687e-009 -2.90554 0.965183 -0.102902 9.14276e-010 -6.11611e-011 -4.13688e-009 -10.2786 0.731801 -0.0259123 9.14284e-010 -6.11596e-011 -4.13689e-009 -2.22167 -0.733487 0.20892 -2.03217e-016 0 -3.88251e-019 13.7453 -71.9368 8.8549 -1.49284 66.0636 2.18293 -5.9907 -16.1305 -14.475 2.03217e-016 0 3.88251e-019 2.19117 -74.4551 1.31648 1.64291 67.1275 -2.20178 3.14083 -19.4101 6.26861 
